<svg width="17" height="16" viewBox="0 0 17 16" fill="none" xmlns="http://www.w3.org/2000/svg">
<path d="M8.00781 0.614746C8.09344 0.614805 8.16678 0.641071 8.24902 0.723145C8.33133 0.809086 8.35742 0.886191 8.35742 0.972168C8.35734 1.05901 8.33078 1.133 8.24902 1.21533L1.8877 7.57666H15.2979C15.4194 7.57668 15.4945 7.61201 15.5586 7.67529C15.6207 7.73665 15.6553 7.80837 15.6553 7.92822C15.6553 8.04807 15.6207 8.1198 15.5586 8.18115C15.4945 8.24443 15.4194 8.27977 15.2979 8.27979H1.8877L8.24316 14.6353V14.6343C8.32543 14.7167 8.35371 14.7935 8.35449 14.8853V14.8862C8.35501 14.9527 8.34036 15.0111 8.29883 15.0708L8.24707 15.1323C8.16712 15.2133 8.09394 15.2395 8.00488 15.2388C7.91044 15.2379 7.83212 15.2079 7.74902 15.1255L0.800781 8.17725C0.74762 8.12308 0.721924 8.08094 0.709961 8.05225V8.05127C0.694853 8.01493 0.686523 7.97485 0.686523 7.92725C0.686553 7.87965 0.695164 7.84051 0.709961 7.80518V7.8042C0.721825 7.77573 0.747292 7.73337 0.800781 7.6792L7.75098 0.729004C7.84137 0.64178 7.92105 0.614746 8.00781 0.614746Z" fill="#300A09" stroke="#300A09"/>
</svg>
