<svg width="17" height="16" viewBox="0 0 17 16" fill="none" xmlns="http://www.w3.org/2000/svg">
<path d="M8.99512 0.617676C9.06607 0.618344 9.12792 0.634993 9.18945 0.678223L9.25098 0.730957L16.1992 7.6792C16.2524 7.73337 16.2781 7.77549 16.29 7.8042V7.80518C16.3052 7.84152 16.3135 7.88158 16.3135 7.9292C16.3134 7.97681 16.3048 8.01593 16.29 8.05127V8.05225C16.2782 8.08072 16.2527 8.12305 16.1992 8.17725L9.24512 15.1255C9.15376 15.2158 9.07515 15.2417 8.99219 15.2417C8.91149 15.2416 8.83932 15.2171 8.75586 15.1313L8.75098 15.1265L8.69922 15.0659C8.65712 15.0063 8.64259 14.9483 8.64258 14.8833C8.64258 14.8187 8.65735 14.761 8.69922 14.7017L8.75098 14.6411L15.1123 8.27979H1.70215C1.58005 8.27975 1.50781 8.2446 1.44727 8.18408H1.44629C1.38542 8.12317 1.35059 8.05024 1.35059 7.92822C1.35059 7.80621 1.38542 7.73327 1.44629 7.67236H1.44727C1.50782 7.61183 1.58005 7.5767 1.70215 7.57666H15.1123L8.75684 1.22119C8.69552 1.15984 8.66374 1.10144 8.65137 1.03662L8.64551 0.969238C8.6446 0.879288 8.67076 0.805706 8.75098 0.725098L8.75195 0.724121C8.8321 0.643533 8.90546 0.6169 8.99512 0.617676Z" fill="#300A09" stroke="#300A09"/>
</svg>
