<svg width="112" height="108" viewBox="0 0 112 108" fill="none" xmlns="http://www.w3.org/2000/svg">
<path d="M66.6357 1.50356C68.551 -0.776802 72.2574 0.216311 72.7759 3.14884L75.5693 18.9458C75.9232 20.947 77.8983 22.2297 79.8705 21.739L95.4379 17.8657C98.3278 17.1466 100.743 20.1286 99.4384 22.8059L92.413 37.2278C91.523 39.0548 92.367 41.2535 94.2509 42.0157L109.122 48.0324C111.883 49.1493 112.083 52.9812 109.455 54.3805L95.294 61.9187C93.5001 62.8737 92.8905 65.1485 93.9666 66.8725L102.461 80.4811C104.038 83.0074 101.948 86.2254 98.9988 85.8124L83.1118 83.5875C81.0992 83.3057 79.2689 84.7877 79.1262 86.815L77.9993 102.817C77.7902 105.788 74.2079 107.163 72.0647 105.096L60.5196 93.9574C59.057 92.5464 56.7052 92.6696 55.3981 94.2258L45.0805 106.51C43.1651 108.79 39.4588 107.797 38.9402 104.864L36.1469 89.0675C35.793 87.0662 33.8179 85.7836 31.8457 86.2742L16.2783 90.1476C13.3884 90.8666 10.9736 87.8846 12.2778 85.2074L19.3031 70.7855C20.1931 68.9584 19.3492 66.7598 17.4652 65.9976L2.59423 59.9809C-0.166395 58.8639 -0.36721 55.0321 2.26154 53.6327L16.4221 46.0945C18.2161 45.1396 18.8256 42.8647 17.7495 41.1407L9.25516 27.5322C7.67828 25.0059 9.76811 21.7879 12.7174 22.2009L28.6043 24.4257C30.617 24.7076 32.4472 23.2255 32.59 21.1982L33.7168 5.19584C33.926 2.22517 37.5082 0.850086 39.6514 2.91775L51.1965 14.0558C52.6591 15.4669 55.011 15.3436 56.3181 13.7874L66.6357 1.50356Z" fill="#DC2F22"/>
<path d="M39.6449 46.4847L39.7744 46.0016C40.4107 46.0445 40.749 45.9909 40.7892 45.8409L42.6605 39.1218C42.5297 38.9922 42.3868 38.89 42.2319 38.8154C42.0825 38.7376 41.9438 38.6815 41.8159 38.6472L41.9453 38.1641L44.2351 38.7777C44.3233 38.8013 44.3872 38.8539 44.4269 38.9354C44.4709 39.0182 44.5139 39.1928 44.556 39.4594L45.5107 45.6378L49.473 40.7769C49.6574 40.5474 49.7854 40.4138 49.8569 40.3762C49.9297 40.3342 50.0079 40.3245 50.0918 40.3469L52.3352 40.9481L52.2057 41.4312C51.9719 41.3685 51.673 41.3546 51.309 41.3895L49.5576 48.1904C49.5435 48.2433 49.6051 48.3308 49.7427 48.4528C49.8858 48.5715 50.108 48.7043 50.409 48.8512L50.2796 49.3343L46.8252 48.4087L46.9546 47.9256C47.2712 47.9442 47.5255 47.939 47.7177 47.9102C47.9142 47.8824 48.0202 47.8399 48.0356 47.7826L49.4242 42.3881L44.9391 47.9033L44.317 47.7366L43.2397 40.7452L41.7487 46.098C41.7345 46.1509 41.7896 46.2366 41.9139 46.355C42.0394 46.4691 42.2527 46.5995 42.5538 46.7464L42.4244 47.2295L39.6449 46.4847Z" fill="#FFF2EA"/>
<path d="M54.6735 50.7244C54.1176 50.5755 53.6476 50.3266 53.2635 49.9778C52.885 49.6257 52.5923 49.2092 52.3854 48.7282C52.183 48.2484 52.0659 47.7324 52.0342 47.1801C52.0081 46.6246 52.0696 46.0689 52.2185 45.513C52.3793 44.913 52.6288 44.3699 52.9672 43.8836C53.3067 43.393 53.7085 42.9876 54.1726 42.6675C54.6422 42.3441 55.1516 42.1283 55.7008 42.0201C56.2499 41.9119 56.8156 41.9358 57.398 42.0919C57.9804 42.2479 58.4624 42.5047 58.8442 42.8624C59.2259 43.22 59.5146 43.6426 59.7103 44.13C59.9071 44.6131 60.0148 45.1289 60.0333 45.6777C60.0517 46.2264 59.9888 46.7699 59.8446 47.3081C59.6839 47.9081 59.4255 48.4489 59.0695 48.9304C58.7179 49.4131 58.3029 49.8149 57.8244 50.1359C57.3471 50.4525 56.8361 50.6655 56.2914 50.7749C55.751 50.8855 55.2118 50.8686 54.6735 50.7244ZM55.2041 49.909C55.7864 50.0651 56.3436 49.9094 56.8755 49.4419C57.4086 48.97 57.8318 48.1495 58.145 46.9804C58.3082 46.3716 58.3664 45.7748 58.3197 45.1902C58.2731 44.6055 58.1242 44.1022 57.8732 43.6803C57.6277 43.2552 57.2778 42.9817 56.8234 42.86C56.1881 42.6897 55.6218 42.8619 55.1245 43.3765C54.6273 43.8911 54.2338 44.6888 53.9442 45.7697C53.7681 46.427 53.7072 47.0514 53.7615 47.6429C53.8202 48.2355 53.9746 48.7356 54.2248 49.1431C54.4762 49.5461 54.8026 49.8015 55.2041 49.909Z" fill="#FFF2EA"/>
<path d="M62.2574 52.7565C62.0501 52.701 61.8101 52.6083 61.5375 52.4785C61.2649 52.3487 60.9983 52.1969 60.7375 52.023C60.4768 51.8491 60.2604 51.6682 60.0885 51.4803C60.0624 51.4543 60.0606 51.364 60.0831 51.2093C60.1113 51.0513 60.1549 50.862 60.214 50.6415C60.2787 50.4176 60.3528 50.194 60.4363 49.9705C60.5243 49.7481 60.6128 49.5591 60.7018 49.4032L61.1628 49.5622C61.2263 50.1372 61.3995 50.6376 61.6827 51.0634C61.9658 51.4891 62.3323 51.7623 62.7823 51.8829C63.1794 51.9893 63.5641 51.9741 63.9364 51.8375C64.31 51.6964 64.5529 51.4163 64.6652 50.9972C64.7609 50.6398 64.7393 50.3149 64.6002 50.0222C64.4655 49.7308 64.2623 49.4565 63.9908 49.1993C63.7193 48.9421 63.4255 48.6885 63.1095 48.4383C62.7991 48.1849 62.5111 47.9186 62.2455 47.6394C61.9798 47.3601 61.7834 47.0521 61.6561 46.7154C61.5332 46.3798 61.5291 45.9981 61.6438 45.5702C61.6993 45.3628 61.8176 45.151 61.9985 44.9346C62.185 44.7151 62.4303 44.5231 62.7344 44.3587C63.0429 44.1955 63.4086 44.0925 63.8315 44.0498C64.2543 44.007 64.7326 44.0572 65.2665 44.2002C65.7429 44.3279 66.1754 44.5052 66.5638 44.7322C66.9522 44.9592 67.2043 45.1829 67.3203 45.4031C67.3441 45.4378 67.3229 45.5078 67.2569 45.6131C67.1953 45.7195 67.1091 45.8383 66.9983 45.9693C66.8931 46.0972 66.7837 46.2145 66.67 46.3211C66.5619 46.4246 66.4749 46.4935 66.4089 46.5278L65.9828 46.3711C65.9042 45.9055 65.7378 45.5559 65.4836 45.3223C65.2294 45.0887 64.9765 44.9382 64.725 44.8708C64.2839 44.7526 63.9378 44.7734 63.687 44.9331C63.4361 45.0929 63.277 45.2985 63.2096 45.55C63.1351 45.8279 63.1722 46.0955 63.3207 46.3529C63.4705 46.6058 63.6817 46.8586 63.9545 47.1114C64.2316 47.3653 64.5258 47.6262 64.8371 47.894C65.1483 48.1618 65.4332 48.4486 65.6918 48.7543C65.9547 49.0612 66.1469 49.394 66.2682 49.7528C66.3896 50.1116 66.3918 50.5094 66.2748 50.9462C66.1956 51.2418 66.0478 51.5284 65.8315 51.8062C65.6152 52.084 65.3343 52.3208 64.9886 52.5166C64.6474 52.7136 64.247 52.8404 63.7873 52.8969C63.3277 52.9534 62.8177 52.9067 62.2574 52.7565Z" fill="#FFF2EA"/>
<path d="M68.1342 54.1184L68.2637 53.6353C68.692 53.6602 68.988 53.6497 69.1517 53.6037C69.3165 53.5533 69.4072 53.4972 69.4237 53.4355L71.1881 46.8508L69.5072 46.4004C69.3704 46.3638 69.2197 46.4322 69.055 46.6055C68.8903 46.7789 68.6396 47.0971 68.3027 47.5601L67.8675 47.252C67.9268 47.0835 68.0056 46.8776 68.1039 46.6344C68.2034 46.3868 68.3038 46.1442 68.4053 45.9066C68.508 45.6646 68.5955 45.4705 68.6677 45.3244L75.7487 47.2217L75.9434 47.5008C75.8988 47.6497 75.8325 47.8352 75.7446 48.0576C75.6578 48.2755 75.5621 48.5004 75.4574 48.7324C75.3582 48.9612 75.2662 49.1635 75.1813 49.3394L74.6849 49.2064C74.7111 48.7736 74.729 48.4332 74.7387 48.1852C74.754 47.934 74.6668 47.7829 74.4771 47.7321L72.8425 47.2941L71.0781 53.8788C71.0628 53.9361 71.1139 54.0278 71.2314 54.1539C71.3533 54.2811 71.606 54.4411 71.9895 54.6336L71.86 55.1167L68.1342 54.1184Z" fill="#FFF2EA"/>
<path d="M25.0478 57.0996L25.1772 56.6165C25.8136 56.6594 26.1518 56.6058 26.192 56.4558L28.0078 49.6792C27.6795 49.6338 27.3655 49.5969 27.0657 49.5686L27.1428 48.9368C27.4818 48.9425 27.8618 48.971 28.2831 49.0224C28.7055 49.0694 29.1371 49.1354 29.5777 49.2204C30.0195 49.3009 30.4345 49.3932 30.8228 49.4972C31.8507 49.7727 32.6242 50.1951 33.1431 50.7644C33.662 51.3337 33.8198 51.9978 33.6164 52.7567C33.4935 53.2155 33.2955 53.5927 33.0224 53.8884C32.7537 54.1852 32.4452 54.4099 32.097 54.5625C31.7532 54.7163 31.4027 54.8067 31.0454 54.834C30.6882 54.8612 30.364 54.8358 30.0729 54.7578C29.8699 54.7034 29.6755 54.6348 29.4897 54.5519C29.305 54.4646 29.1466 54.3677 29.0143 54.2614L28.9953 53.5115C29.1537 53.6438 29.2978 53.7415 29.4275 53.8046C29.5627 53.8645 29.7076 53.9152 29.862 53.9565C30.1179 54.0251 30.3793 54.0289 30.6462 53.9681C30.9143 53.9028 31.1582 53.7601 31.378 53.54C31.5989 53.3155 31.7649 52.9958 31.8761 52.5811C32.0439 51.9547 31.9725 51.4272 31.6617 50.9987C31.3565 50.567 30.8885 50.2667 30.2576 50.0976C30.1738 50.0752 30.085 50.0537 29.9911 50.0333C29.8985 50.0085 29.803 49.9853 29.7048 49.9637L27.8465 56.8991C27.8323 56.952 27.8863 57.0327 28.0086 57.1411C28.1309 57.2495 28.4114 57.4027 28.8501 57.6007L28.7206 58.0837L25.0478 57.0996Z" fill="#FFF2EA"/>
<path d="M36.3572 60.3428C35.8014 60.1938 35.3313 59.9449 34.9472 59.5961C34.5687 59.2441 34.276 58.8276 34.0692 58.3466C33.8667 57.8667 33.7497 57.3507 33.718 56.7984C33.6918 56.2429 33.7533 55.6872 33.9022 55.1313C34.063 54.5313 34.3125 53.9882 34.6509 53.502C34.9904 53.0113 35.3922 52.6059 35.8563 52.2858C36.3259 51.9624 36.8353 51.7466 37.3845 51.6384C37.9336 51.5302 38.4994 51.5542 39.0817 51.7102C39.6641 51.8662 40.1461 52.1231 40.5279 52.4807C40.9096 52.8384 41.1984 53.2609 41.394 53.7484C41.5909 54.2314 41.6985 54.7473 41.717 55.296C41.7354 55.8448 41.6726 56.3882 41.5283 56.9265C41.3676 57.5265 41.1092 58.0672 40.7532 58.5487C40.4016 59.0314 39.9866 59.4333 39.5081 59.7543C39.0308 60.0709 38.5198 60.2838 37.9751 60.3932C37.4348 60.5038 36.8955 60.487 36.3572 60.3428ZM36.8878 59.5274C37.4702 59.6834 38.0273 59.5277 38.5592 59.0603C39.0923 58.5884 39.5155 57.7679 39.8288 56.5988C39.9919 55.9899 40.0501 55.3932 40.0035 54.8085C39.9568 54.2239 39.8079 53.7206 39.5569 53.2987C39.3114 52.8735 38.9615 52.6001 38.5071 52.4783C37.8718 52.3081 37.3055 52.4802 36.8082 52.9948C36.311 53.5094 35.9176 54.3071 35.6279 55.388C35.4518 56.0454 35.3909 56.6698 35.4452 57.2612C35.5039 57.8539 35.6584 58.3539 35.9085 58.7614C36.1599 59.1645 36.4863 59.4198 36.8878 59.5274Z" fill="#FFF2EA"/>
<path d="M41.1686 61.4192L41.298 60.9361C41.9344 60.9789 42.2726 60.9253 42.3128 60.7753L44.1286 53.9988C43.8003 53.9534 43.4863 53.9165 43.1865 53.8882L43.2636 53.2563C43.6025 53.262 43.9826 53.2906 44.4039 53.342C44.8263 53.389 45.2579 53.4549 45.6985 53.5399C46.1403 53.6205 46.5553 53.7128 46.9436 53.8168C47.9715 54.0922 48.745 54.5146 49.2639 55.0839C49.7828 55.6533 49.9405 56.3174 49.7372 57.0762C49.6143 57.535 49.4163 57.9123 49.1432 58.2079C48.8745 58.5048 48.566 58.7295 48.2178 58.882C47.874 59.0358 47.5234 59.1263 47.1662 59.1535C46.809 59.1808 46.4848 59.1554 46.1936 59.0773C45.9907 59.023 45.7963 58.9543 45.6105 58.8714C45.4258 58.7841 45.2673 58.6873 45.1351 58.5809L45.1161 57.8311C45.2745 57.9634 45.4186 58.0611 45.5482 58.1242C45.6835 58.1841 45.8284 58.2347 45.9828 58.2761C46.2387 58.3446 46.5001 58.3485 46.767 58.2876C47.0351 58.2223 47.279 58.0796 47.4988 57.8595C47.7197 57.635 47.8857 57.3154 47.9968 56.9007C48.1647 56.2742 48.0933 55.7467 47.7825 55.3183C47.4773 54.8866 47.0093 54.5862 46.3784 54.4172C46.2946 54.3947 46.2057 54.3733 46.1119 54.3529C46.0193 54.328 45.9238 54.3048 45.8256 54.2832L43.9673 61.2186C43.9531 61.2716 44.0071 61.3522 44.1294 61.4607C44.2516 61.5691 44.5321 61.7223 44.9709 61.9202L44.8414 62.4033L41.1686 61.4192Z" fill="#FFF2EA"/>
<path d="M53.0273 64.8095C52.4229 64.6475 51.8993 64.3867 51.4567 64.0269C51.014 63.6671 50.7048 63.2154 50.5289 62.6718C50.353 62.1282 50.3608 61.499 50.5523 60.7843L51.7599 56.2776C51.7741 56.2247 51.719 56.139 51.5947 56.0206C51.4748 55.9033 51.2643 55.7713 50.9632 55.6244L51.0926 55.1413L54.5669 56.0722L54.4375 56.5553C53.7944 56.5201 53.4533 56.5753 53.4143 56.7209L52.322 60.7975C52.095 61.6445 52.0785 62.3328 52.2723 62.8623C52.4662 63.3919 52.9403 63.7577 53.6947 63.9599C54.1138 64.0722 54.4788 64.0423 54.7897 63.8703C55.1062 63.695 55.3688 63.4296 55.5776 63.0742C55.7919 62.7155 55.9576 62.3178 56.0746 61.881L57.1864 57.7317C57.2006 57.6787 57.1455 57.593 57.0212 57.4746C56.9013 57.3574 56.6908 57.2253 56.3897 57.0784L56.5192 56.5953L59.4971 57.3933L59.3677 57.8764C58.7246 57.8412 58.3835 57.8964 58.3445 58.042L57.2788 62.0192C57.0719 62.7913 56.754 63.413 56.3251 63.8844C55.9006 64.357 55.4022 64.6727 54.8301 64.8315C54.2635 64.9871 53.6626 64.9797 53.0273 64.8095Z" fill="#FFF2EA"/>
<path d="M57.9247 65.9089L58.0541 65.4259C58.6904 65.4687 59.0287 65.4151 59.0689 65.2651L60.8262 58.7069C60.8403 58.654 60.7853 58.5683 60.661 58.4499C60.5411 58.3326 60.3306 58.2006 60.0295 58.0537L60.1589 57.5706L63.6332 58.5015L63.5038 58.9846C62.8607 58.9494 62.5196 59.0046 62.4806 59.1502L60.8297 65.3113C60.7884 65.4658 60.8397 65.6095 60.9837 65.7427C61.1333 65.8726 61.4485 66.002 61.9294 66.1309L62.6772 66.3312C62.9507 66.4045 63.181 66.4189 63.3678 66.3744C63.5547 66.3299 63.7327 66.2216 63.9018 66.0494C64.0753 65.8784 64.2699 65.6373 64.4856 65.3263L64.9226 65.6278C64.8332 65.8734 64.733 66.1326 64.622 66.4055C64.5167 66.6752 64.4168 66.9156 64.3224 67.1267C64.228 67.3378 64.158 67.4846 64.1122 67.5669L57.9247 65.9089Z" fill="#FFF2EA"/>
<path d="M64.549 67.6839L64.6785 67.2008C64.9926 67.2283 65.2368 67.2346 65.411 67.2198C65.5896 67.2062 65.7187 67.1391 65.7983 67.0186L69.9981 60.5829C70.254 60.4576 70.5324 60.3715 70.8334 60.3244C71.1389 60.2786 71.4152 60.2534 71.6623 60.2486L72.3565 68.7758C72.3675 68.9112 72.4187 69.0289 72.5101 69.1291C72.6015 69.2292 72.7836 69.3348 73.0565 69.4457L72.9271 69.9288L69.638 69.0475L69.7675 68.5644C70.1131 68.6334 70.3566 68.6514 70.4978 68.6183C70.6391 68.5852 70.705 68.4894 70.6954 68.3308L70.5329 66.2374L67.9056 65.5334L66.7579 67.2757C66.6771 67.4007 66.7035 67.5141 66.8369 67.6161C66.9748 67.7192 67.2193 67.8391 67.5704 67.9757L67.441 68.4588L64.549 67.6839ZM68.3831 64.8102L70.4677 65.3688L70.2003 61.9989L68.3831 64.8102Z" fill="#FFF2EA"/>
<path d="M79.4008 71.7628C79.2773 71.7297 79.1632 71.6613 79.0586 71.5576C78.9552 71.4495 78.8856 71.3386 78.8498 71.225L77.9169 67.1094C77.8716 67.102 77.8269 67.0924 77.7828 67.0806C77.7431 67.07 77.7012 67.0587 77.6571 67.0469C77.5468 67.0174 77.4333 66.9822 77.3165 66.9415C77.2053 66.8975 77.0915 66.8457 76.9751 66.7861L76.1559 69.8435C76.1417 69.8965 76.1946 69.9816 76.3144 70.0988C76.4399 70.2128 76.6554 70.3439 76.961 70.4919L76.8315 70.975L73.3572 70.0441L73.4867 69.561C74.123 69.6038 74.4612 69.5502 74.5014 69.4002L76.3154 62.6303C76.1519 62.6054 75.99 62.5833 75.8296 62.564C75.6737 62.5458 75.5222 62.5289 75.3751 62.5131L75.4522 61.8812C75.9427 61.9039 76.4743 61.9494 77.047 62.0177C77.6254 62.0829 78.23 62.1999 78.8609 62.369C79.6594 62.583 80.2777 62.8432 80.7157 63.1497C81.1581 63.4574 81.4488 63.793 81.5879 64.1565C81.7325 64.5168 81.754 64.8867 81.6523 65.2661C81.4903 65.8705 81.1817 66.334 80.7265 66.6565C80.2769 66.9758 79.7531 67.157 79.1552 67.2001L80.4666 70.644C80.5582 70.8671 80.6652 71.0234 80.7878 71.113C80.9116 71.1982 81.1248 71.2672 81.4275 71.3199L81.3973 71.8296C81.1866 71.8393 80.9461 71.8458 80.6757 71.849C80.4109 71.849 80.1601 71.8409 79.9233 71.8247C79.6897 71.8142 79.5155 71.7935 79.4008 71.7628ZM77.7467 66.2623C78.3423 66.4219 78.8193 66.389 79.1776 66.1634C79.5359 65.9379 79.7866 65.5582 79.9297 65.0244C80.003 64.7509 80.013 64.484 79.9597 64.2239C79.9065 63.9637 79.757 63.7274 79.5113 63.515C79.2656 63.3026 78.8891 63.1284 78.3817 62.9925C78.3244 62.9771 78.2642 62.9633 78.2013 62.9512C78.1395 62.9346 78.0772 62.9203 78.0142 62.9082L77.1702 66.0582C77.2845 66.1078 77.3847 66.1488 77.4706 66.1812C77.5576 66.2093 77.6497 66.2363 77.7467 66.2623Z" fill="#FFF2EA"/>
</svg>
