<svg width="274" height="87" viewBox="0 0 274 87" fill="none" xmlns="http://www.w3.org/2000/svg">
<path d="M42.8438 61.0938C38.9688 64.5521 34.3438 66.2812 28.9688 66.2812C25.7188 66.2812 23.3958 65.5938 22 64.2188C21.2083 63.4688 20.8125 62.1458 20.8125 60.25C20.8125 57.3333 23.0312 55.4479 27.4688 54.5938C28.8646 54.3229 30.5417 54.1875 32.5 54.1875C34.4583 54.1875 37.1354 54.5521 40.5312 55.2812C42.3438 53.2604 44.5 50.2917 47 46.375C49.5208 42.4375 51.5104 39.4062 52.9688 37.2812C54.4271 35.1562 56.0833 32.9896 57.9375 30.7812C59.7917 28.5521 61.7292 26.5417 63.75 24.75C67.8542 21.0833 71.9167 19.25 75.9375 19.25C77.7292 19.25 79.0208 19.7083 79.8125 20.625C80.6042 21.5208 81 22.5938 81 23.8438C81 25.0729 80.4271 26.5104 79.2812 28.1562C78.1562 29.8021 76.8438 31.2604 75.3438 32.5312C73.8646 33.8021 72.3958 34.8854 70.9375 35.7812C69.5 36.6562 68.3646 37.0938 67.5312 37.0938C66.6979 37.0938 65.9792 36.7396 65.375 36.0312C64.7708 35.3229 64.4688 34.6458 64.4688 34C64.4688 33.3333 64.5521 32.875 64.7188 32.625C64.9062 32.3542 65.0938 32.2188 65.2812 32.2188C65.4688 32.2188 65.5833 32.3333 65.625 32.5625C66.2917 32.3542 67.3542 31.7083 68.8125 30.625C70.2917 29.5208 71.6354 28.375 72.8438 27.1875C74.0521 26 74.6562 25.2604 74.6562 24.9688C74.6562 24.6562 74.4688 24.5 74.0938 24.5C73.7396 24.5 73.25 24.625 72.625 24.875C72 25.125 71.1667 25.6458 70.125 26.4375C69.0833 27.2083 67.9583 28.2083 66.75 29.4375C63.8333 32.3542 60.5833 36.4896 57 41.8438C56.1667 43.0521 54.9896 44.8125 53.4688 47.125C50.3646 51.8125 48.1458 55.0208 46.8125 56.75C57.5 59.5625 65.1354 60.9688 69.7188 60.9688C71.8438 60.9688 73.3333 60.6979 74.1875 60.1562C74.5 59.9688 74.7083 59.875 74.8125 59.875C74.9167 59.875 74.9688 59.9583 74.9688 60.125C74.9688 60.2917 74.875 60.5417 74.6875 60.875C74.5 61.2083 74.0312 61.9167 73.2812 63C72.5521 64.0833 72.0104 64.7292 71.6562 64.9375C70.6354 65.5417 68.8958 65.8438 66.4375 65.8438C64 65.8438 61.6667 65.6667 59.4375 65.3125C57.2292 64.9583 55.4479 64.6146 54.0938 64.2812C52.7396 63.9271 50.7292 63.3646 48.0625 62.5938C45.4167 61.8229 43.6771 61.3229 42.8438 61.0938ZM31.4375 59.1875C28.7083 59.1875 27.3438 59.5104 27.3438 60.1562C27.3438 60.4062 27.5729 60.625 28.0312 60.8125C28.5104 61 29.0729 61.0938 29.7188 61.0938C31.7396 61.0938 33.6875 60.5625 35.5625 59.5C33.9583 59.2917 32.5833 59.1875 31.4375 59.1875ZM97.9062 41.25C99.4896 41.25 100.281 41.7917 100.281 42.875C100.281 43.4583 100.146 43.8854 99.875 44.1562C99.6042 44.4271 99.0208 45.3333 98.125 46.875C97.25 48.3958 96.2708 50.3542 95.1875 52.75C94.125 55.125 93.4375 57.1562 93.125 58.8438C93.0625 59.0521 93.0312 59.3438 93.0312 59.7188C93.0312 60.8646 93.3438 61.4375 93.9688 61.4375C94.5938 61.4375 95.3333 61.1458 96.1875 60.5625C97.0417 59.9583 97.8021 59.3229 98.4688 58.6562C99.1354 57.9688 99.7812 57.2708 100.406 56.5625C101.052 55.8542 101.438 55.4479 101.562 55.3438C101.688 55.2396 101.875 55.1875 102.125 55.1875C102.521 55.1875 102.76 55.4896 102.844 56.0938C102.927 56.6979 102.969 57.3229 102.969 57.9688C102.969 58.6146 102.906 59.0625 102.781 59.3125C102.177 60.5 100.844 61.9271 98.7812 63.5938C96.7396 65.2604 94.875 66.0938 93.1875 66.0938C91.5208 66.0938 90.2917 65.5833 89.5 64.5625C88.7083 63.5417 88.3125 62.4167 88.3125 61.1875C88.3125 59.9375 88.5208 58.8438 88.9375 57.9062C87.2083 60.1562 85.2188 62.0625 82.9688 63.625C80.7396 65.1875 78.9167 65.9688 77.5 65.9688C76.0833 65.9688 74.9271 65.5417 74.0312 64.6875C72.8854 63.625 72.3125 62.1562 72.3125 60.2812C72.3125 58.3854 72.7292 56.4896 73.5625 54.5938C74.4167 52.6771 75.5312 50.9375 76.9062 49.375C78.2812 47.7917 79.7917 46.3542 81.4375 45.0625C84.8958 42.3542 88.0833 41 91 41C92.125 41 93.0417 41.1875 93.75 41.5625C94.4583 41.9375 94.9062 42.4062 95.0938 42.9688C95.5938 42.2188 96.0104 41.75 96.3438 41.5625C96.6979 41.3542 97.2188 41.25 97.9062 41.25ZM93.75 44.7188C90.1875 44.7188 86.5 46.6979 82.6875 50.6562C81.3333 52.0729 80.0833 53.7708 78.9375 55.75C77.8125 57.7292 77.25 59.0833 77.25 59.8125C77.25 60.5417 77.4583 60.9062 77.875 60.9062C78.4583 60.9062 80.0833 59.7604 82.75 57.4688C85.4167 55.1562 87.1875 53.4583 88.0625 52.375C89.0208 51.1667 90.9167 48.6146 93.75 44.7188ZM104.062 58.75L104.031 59.25C104.031 59.7708 104.229 60.2188 104.625 60.5938C105.021 60.9688 105.385 61.1562 105.719 61.1562C108.219 61.1562 110.427 60.7812 112.344 60.0312C114.281 59.2812 115.25 58.5312 115.25 57.7812C115.25 57.4271 114.896 57.125 114.188 56.875C113.5 56.6042 112.323 56.2812 110.656 55.9062C109.01 55.5104 107.812 55.2083 107.062 55C106.312 54.7708 105.719 54.5625 105.281 54.375C104.844 54.1875 104.396 53.9271 103.938 53.5938C102.958 52.9062 102.469 51.8854 102.469 50.5312C102.469 49.1562 102.969 47.8021 103.969 46.4688C104.99 45.1146 106.26 43.9583 107.781 43C109.302 42.0417 110.938 41.1979 112.688 40.4688C116.146 39.0312 119.052 38.3125 121.406 38.3125C123.719 38.3125 125.146 38.8125 125.688 39.8125C125.854 40.1667 125.938 40.5625 125.938 41V41.2188C125.938 42.3229 125.698 43.1875 125.219 43.8125C124.76 44.4375 124.021 45 123 45.5C122 46 121.198 46.25 120.594 46.25C120.01 46.25 119.635 46.2083 119.469 46.125C119.323 46.0417 119.198 45.9375 119.094 45.8125C118.99 45.6667 118.854 45.5625 118.688 45.5C118.542 45.4375 118.469 45.2812 118.469 45.0312C118.469 44.7812 118.573 44.5312 118.781 44.2812C118.99 44.0104 119.135 43.7292 119.219 43.4375C117.844 43.5 116.406 43.8229 114.906 44.4062C113.406 44.9688 112.115 45.6042 111.031 46.3125C109.969 47.0208 109.083 47.6979 108.375 48.3438C107.667 48.9896 107.312 49.4688 107.312 49.7812C107.312 50.0729 107.792 50.3125 108.75 50.5C113.062 51.3542 115.896 52.0938 117.25 52.7188C118.604 53.3438 119.542 54.0521 120.062 54.8438C120.583 55.6354 120.844 56.3542 120.844 57C120.844 58.3333 120.312 59.5938 119.25 60.7812C118.188 61.9688 116.875 62.9375 115.312 63.6875C111.958 65.3333 109.031 66.1562 106.531 66.1562C104.052 66.1562 102.333 65.7708 101.375 65C100.438 64.25 99.9688 63.3542 99.9688 62.3125C99.9688 61.2708 100.229 60.3125 100.75 59.4375C101.292 58.5417 101.979 58.0938 102.812 58.0938C103.646 58.0938 104.062 58.3125 104.062 58.75ZM146.188 24.75L147.469 25.0625C147.656 25.0625 147.823 25.1562 147.969 25.3438C148.115 25.5312 148.188 25.7083 148.188 25.875C148.188 26.0417 147.969 26.4896 147.531 27.2188C147.094 27.9479 146.573 28.7812 145.969 29.7188C145.385 30.6354 145.073 31.1354 145.031 31.2188C146.656 31.0938 147.802 31.0312 148.469 31.0312C149.156 31.0312 149.625 31.0833 149.875 31.1875C150.125 31.2708 150.406 31.5312 150.719 31.9688C151.052 32.3854 151.354 32.7083 151.625 32.9375C151.896 33.1458 152.031 33.4688 152.031 33.9062C152.031 34.3438 151.76 34.7188 151.219 35.0312C150.698 35.3229 150.135 35.5 149.531 35.5625C144.698 36.0417 142.031 36.2917 141.531 36.3125C139.844 38.8958 137.479 42.9271 134.438 48.4062C131.417 53.8646 129.812 57.2812 129.625 58.6562C129.542 59.2812 129.5 59.7917 129.5 60.1875C129.5 61 129.927 61.4062 130.781 61.4062C131.635 61.4062 132.583 61.0833 133.625 60.4375C134.667 59.7708 135.625 59.0521 136.5 58.2812C138.833 56.1979 140.083 55.1562 140.25 55.1562C140.792 55.1562 141.062 56.0938 141.062 57.9688C141.062 58.9896 140.594 59.9062 139.656 60.7188C137.552 62.5312 135.781 63.8958 134.344 64.8125C132.906 65.7292 131.469 66.1875 130.031 66.1875C129.719 66.1875 129.427 66.1562 129.156 66.0938C127.49 65.7812 126.26 65.1771 125.469 64.2812C124.698 63.3646 124.312 62.1354 124.312 60.5938C124.333 59.0521 124.792 57.1875 125.688 55C126.604 52.7917 127.75 50.4479 129.125 47.9688C131.375 43.9271 133.625 40.1354 135.875 36.5938L134.688 36.75C132.271 37.0208 130.865 37.1562 130.469 37.1562H130.188C129.583 37.1562 129 37.0417 128.438 36.8125C127.875 36.5625 127.594 36.2604 127.594 35.9062C127.594 35.5521 127.74 35.2083 128.031 34.875C128.344 34.5417 128.531 34.2812 128.594 34.0938C128.74 33.6354 129.281 33.125 130.219 32.5625C131.177 32 131.896 31.7083 132.375 31.6875C132.854 31.6458 133.312 31.6146 133.75 31.5938C134.208 31.5729 134.708 31.5521 135.25 31.5312C135.812 31.5104 136.24 31.4896 136.531 31.4688L139.344 31.3438C141.094 28.7188 142.292 27.0312 142.938 26.2812C143.604 25.5312 143.99 25.125 144.094 25.0625C144.198 24.9792 144.406 24.9375 144.719 24.9375L146.188 24.75ZM187 46.7812C187.5 46.7812 187.75 47.1875 187.75 48C187.75 48.7917 187.573 50.1667 187.219 52.125C186.948 53.4375 185.448 55.3125 182.719 57.75C179.427 60.6667 175.812 62.75 171.875 64C169.5 64.75 167.177 65.125 164.906 65.125C162.656 65.125 160.594 64.1771 158.719 62.2812C156.865 60.3646 155.938 58.1042 155.938 55.5C155.938 52.875 156.458 50.1667 157.5 47.375C158.562 44.5625 159.979 41.8854 161.75 39.3438C163.542 36.7812 165.646 34.3229 168.062 31.9688C170.5 29.6146 173.031 27.5729 175.656 25.8438C178.281 24.1146 181.031 22.7396 183.906 21.7188C186.781 20.6979 189.51 20.1875 192.094 20.1875C194.135 20.1875 195.875 20.9271 197.312 22.4062C198.062 23.1979 198.438 24.1979 198.438 25.4062C198.438 26.5938 197.854 28.1042 196.688 29.9375C195.521 31.75 194.135 33.4062 192.531 34.9062C190.948 36.4062 189.302 37.6771 187.594 38.7188C185.906 39.7604 184.552 40.2812 183.531 40.2812C182.51 40.2812 181.635 39.9688 180.906 39.3438C180.177 38.6979 179.812 38.125 179.812 37.625C179.812 37.125 179.917 36.5729 180.125 35.9688C180.354 35.3646 180.635 35.0625 180.969 35.0625C180.885 35.1667 180.844 35.2708 180.844 35.375C180.844 35.625 181.198 35.75 181.906 35.75C182.635 35.75 183.844 35.1146 185.531 33.8438C187.219 32.5729 188.74 31.1458 190.094 29.5625C191.469 27.9792 192.156 26.7917 192.156 26C192.156 25.4583 191.792 25.1875 191.062 25.1875C189.104 25.1875 186.396 26.1042 182.938 27.9375C179.5 29.75 176.208 32.0938 173.062 34.9688C169.917 37.8438 167.177 41.2604 164.844 45.2188C162.531 49.1562 161.375 52.6979 161.375 55.8438C161.375 57.1562 161.719 58.2083 162.406 59C163.115 59.7917 164.188 60.1875 165.625 60.1875C167.083 60.1875 168.802 59.7708 170.781 58.9375C172.76 58.1042 174.635 57.0833 176.406 55.875C178.198 54.6667 179.885 53.4271 181.469 52.1562C183.052 50.8854 184.312 49.7708 185.25 48.8125C186.208 47.8542 186.698 47.2812 186.719 47.0938C186.74 46.8854 186.833 46.7812 187 46.7812ZM213.469 41.25C215.052 41.25 215.844 41.7917 215.844 42.875C215.844 43.4583 215.708 43.8854 215.438 44.1562C215.167 44.4271 214.583 45.3333 213.688 46.875C212.812 48.3958 211.833 50.3542 210.75 52.75C209.688 55.125 209 57.1562 208.688 58.8438C208.625 59.0521 208.594 59.3438 208.594 59.7188C208.594 60.8646 208.906 61.4375 209.531 61.4375C210.156 61.4375 210.896 61.1458 211.75 60.5625C212.604 59.9583 213.365 59.3229 214.031 58.6562C214.698 57.9688 215.344 57.2708 215.969 56.5625C216.615 55.8542 217 55.4479 217.125 55.3438C217.25 55.2396 217.438 55.1875 217.688 55.1875C218.083 55.1875 218.323 55.4896 218.406 56.0938C218.49 56.6979 218.531 57.3229 218.531 57.9688C218.531 58.6146 218.469 59.0625 218.344 59.3125C217.74 60.5 216.406 61.9271 214.344 63.5938C212.302 65.2604 210.438 66.0938 208.75 66.0938C207.083 66.0938 205.854 65.5833 205.062 64.5625C204.271 63.5417 203.875 62.4167 203.875 61.1875C203.875 59.9375 204.083 58.8438 204.5 57.9062C202.771 60.1562 200.781 62.0625 198.531 63.625C196.302 65.1875 194.479 65.9688 193.062 65.9688C191.646 65.9688 190.49 65.5417 189.594 64.6875C188.448 63.625 187.875 62.1562 187.875 60.2812C187.875 58.3854 188.292 56.4896 189.125 54.5938C189.979 52.6771 191.094 50.9375 192.469 49.375C193.844 47.7917 195.354 46.3542 197 45.0625C200.458 42.3542 203.646 41 206.562 41C207.688 41 208.604 41.1875 209.312 41.5625C210.021 41.9375 210.469 42.4062 210.656 42.9688C211.156 42.2188 211.573 41.75 211.906 41.5625C212.26 41.3542 212.781 41.25 213.469 41.25ZM209.312 44.7188C205.75 44.7188 202.062 46.6979 198.25 50.6562C196.896 52.0729 195.646 53.7708 194.5 55.75C193.375 57.7292 192.812 59.0833 192.812 59.8125C192.812 60.5417 193.021 60.9062 193.438 60.9062C194.021 60.9062 195.646 59.7604 198.312 57.4688C200.979 55.1562 202.75 53.4583 203.625 52.375C204.583 51.1667 206.479 48.6146 209.312 44.7188ZM242.094 18.0938C243.094 18.0938 243.969 18.3958 244.719 19C245.49 19.5833 245.875 20.4583 245.875 21.625C245.875 22.7917 245.229 24.625 243.938 27.125C242.646 29.6042 241.094 32.1458 239.281 34.75C237.469 37.3333 235.417 40.0833 233.125 43C229.5 47.625 226.021 51.7812 222.688 55.4688C222.667 55.7188 222.573 56.1875 222.406 56.875C222.26 57.5417 222.188 58.2188 222.188 58.9062C222.188 59.5938 222.5 60.2188 223.125 60.7812C223.771 61.3229 224.562 61.5938 225.5 61.5938C226.438 61.5938 227.438 61.2604 228.5 60.5938C229.583 59.9271 230.521 59.1875 231.312 58.375C233.396 56.2292 234.688 55.1562 235.188 55.1562C235.688 55.1562 235.938 55.9167 235.938 57.4375V58.0625C235.938 58.875 235.792 59.4688 235.5 59.8438C233.75 61.9896 231.781 63.5938 229.594 64.6562C227.406 65.6979 225.333 66.2188 223.375 66.2188C221.417 66.2188 219.927 65.625 218.906 64.4375C217.885 63.2292 217.375 61.5833 217.375 59.5C217.375 55.4375 218.458 50.6667 220.625 45.1875C222.812 39.6875 225.271 35.0104 228 31.1562C234.146 22.4479 238.844 18.0938 242.094 18.0938ZM240.688 23.2812C240.688 22.9688 240.583 22.8125 240.375 22.8125C239.646 22.8125 237.729 24.8958 234.625 29.0625C231.521 33.2292 229.271 36.5521 227.875 39.0312C226.5 41.5104 225.198 44.625 223.969 48.375C226.427 45.4583 229.823 40.9167 234.156 34.75C238.51 28.5625 240.688 24.7396 240.688 23.2812ZM259.094 18.0938C260.094 18.0938 260.969 18.3958 261.719 19C262.49 19.5833 262.875 20.4583 262.875 21.625C262.875 22.7917 262.229 24.625 260.938 27.125C259.646 29.6042 258.094 32.1458 256.281 34.75C254.469 37.3333 252.417 40.0833 250.125 43C246.5 47.625 243.021 51.7812 239.688 55.4688C239.667 55.7188 239.573 56.1875 239.406 56.875C239.26 57.5417 239.188 58.2188 239.188 58.9062C239.188 59.5938 239.5 60.2188 240.125 60.7812C240.771 61.3229 241.562 61.5938 242.5 61.5938C243.438 61.5938 244.438 61.2604 245.5 60.5938C246.583 59.9271 247.521 59.1875 248.312 58.375C250.396 56.2292 251.688 55.1562 252.188 55.1562C252.688 55.1562 252.938 55.9167 252.938 57.4375V58.0625C252.938 58.875 252.792 59.4688 252.5 59.8438C250.75 61.9896 248.781 63.5938 246.594 64.6562C244.406 65.6979 242.333 66.2188 240.375 66.2188C238.417 66.2188 236.927 65.625 235.906 64.4375C234.885 63.2292 234.375 61.5833 234.375 59.5C234.375 55.4375 235.458 50.6667 237.625 45.1875C239.812 39.6875 242.271 35.0104 245 31.1562C251.146 22.4479 255.844 18.0938 259.094 18.0938ZM257.688 23.2812C257.688 22.9688 257.583 22.8125 257.375 22.8125C256.646 22.8125 254.729 24.8958 251.625 29.0625C248.521 33.2292 246.271 36.5521 244.875 39.0312C243.5 41.5104 242.198 44.625 240.969 48.375C243.427 45.4583 246.823 40.9167 251.156 34.75C255.51 28.5625 257.688 24.7396 257.688 23.2812Z" fill="#DC2F22"/>
</svg>
