<svg width="18" height="31" viewBox="0 0 18 31" fill="none" xmlns="http://www.w3.org/2000/svg">
<path d="M8.71599 0.928223C9.26917 6.76362 10.7188 12.0027 17.0786 14.7143C13.6763 15.3488 12.1741 17.3933 11.1232 19.9201C9.95438 22.6206 9.25717 25.5016 9.06191 28.4378C8.97492 29.2739 8.8457 30.1051 8.67476 30.9282C7.64223 30.2251 7.72918 29.1724 7.70032 28.3325C7.58789 25.1682 6.75774 22.1725 5.84064 19.1877C5.63869 18.5797 5.40194 17.9838 5.13155 17.403C4.45694 15.8611 3.49524 14.7447 1.58159 14.9763C1.05078 14.9769 0.521137 14.9265 0 14.8256C0.433286 13.9358 1.20142 13.254 2.13627 12.9292C5.40252 11.8719 5.97706 9.04868 6.72626 6.3626C7.20427 4.48859 7.87092 2.66784 8.71599 0.928223Z" fill="#300A09"/>
</svg>
